<svg width="455" height="381" viewBox="0 0 455 381" fill="none" xmlns="http://www.w3.org/2000/svg">
<rect y="36" width="453" height="316" rx="35" fill="#3F0255"/>
<path d="M0 35C0 15.67 15.67 0 35 0H115H127.076C132.293 0 137.456 1.1413 142.088 3.54032C145.049 5.07356 148.397 6.88382 151 8.5C161.155 14.8061 163.426 19.9249 174 25.5C178.963 28.1167 186.46 31.2044 191.646 33.2493C195.507 34.7719 199.625 35.5 203.776 35.5H232.6C243.841 35.5 254.398 40.8992 260.978 50.0134L412.943 260.513C429.653 283.66 413.114 316 384.565 316H35C15.67 316 0 300.33 0 281V35Z" fill="#3F0255"/>
<rect y="65" width="453" height="316" rx="35" fill="#8002FF"/>
<rect y="65" width="453" height="316" rx="35" fill="#8002FF"/>
<rect y="327" width="455" height="8" fill="#3F0255"/>
<rect y="340" width="455" height="8" fill="#3F0255"/>
</svg>
