<svg width="181" height="191" viewBox="0 0 181 191" fill="none" xmlns="http://www.w3.org/2000/svg">
<rect x="85.7373" y="85.7368" width="9.52632" height="9.52632" fill="#020118"/>
<rect x="114.315" y="85.7368" width="9.52632" height="19.0526" fill="#020118"/>
<rect x="114.315" y="57.1577" width="9.52632" height="19.0526" fill="#020118"/>
<rect x="57.1582" y="85.7368" width="9.52632" height="19.0526" fill="#020118"/>
<rect x="57.1582" y="57.1577" width="9.52632" height="19.0526" fill="#020118"/>
<rect x="66.6846" y="123.842" width="47.6316" height="9.52632" fill="#020118"/>
<rect x="76.2109" y="133.369" width="9.52632" height="9.52632" fill="#020118"/>
<rect x="85.7373" y="161.947" width="9.52632" height="9.52632" fill="#020118"/>
<rect x="142.895" y="57.1577" width="9.52632" height="9.52632" fill="#020118"/>
<rect x="161.947" y="76.2104" width="9.52632" height="9.52632" fill="#020118"/>
<rect x="171.474" y="85.7368" width="9.52632" height="9.52632" fill="#020118"/>
<rect x="161.947" y="95.2632" width="9.52632" height="9.52632" fill="#020118"/>
<rect x="152.421" y="66.6841" width="9.52632" height="9.52632" fill="#020118"/>
<rect x="152.421" y="104.79" width="9.52632" height="9.52632" fill="#020118"/>
<rect x="114.315" y="152.421" width="9.52632" height="9.52632" fill="#020118"/>
<rect x="142.895" y="114.316" width="9.52632" height="19.0526" fill="#020118"/>
<rect x="85.7373" y="181" width="9.52632" height="9.52632" fill="#020118"/>
<rect x="104.789" y="152.421" width="9.52632" height="19.0526" fill="#020118"/>
<rect x="76.2109" y="161.947" width="9.52632" height="9.52632" transform="rotate(90 76.2109 161.947)" fill="#020118"/>
<rect x="76.2109" y="152.421" width="9.52632" height="19.0526" transform="rotate(90 76.2109 152.421)" fill="#020118"/>
<rect x="95.2627" y="133.369" width="9.52632" height="9.52632" fill="#020118"/>
<rect x="104.789" y="133.369" width="9.52632" height="9.52632" fill="#8002FF"/>
<rect x="95.2627" y="142.895" width="9.52632" height="9.52632" fill="#8002FF"/>
<rect x="85.7373" y="133.369" width="9.52632" height="9.52632" fill="#8002FF"/>
<rect x="76.2109" y="142.895" width="9.52632" height="9.52632" fill="#8002FF"/>
<rect x="76.2109" y="171.474" width="9.52632" height="9.52632" fill="#8002FF"/>
<rect x="95.2627" y="171.474" width="9.52632" height="9.52632" fill="#8002FF"/>
<rect x="66.6846" y="133.369" width="9.52632" height="9.52632" fill="#8002FF"/>
<rect x="57.1582" y="123.842" width="9.52632" height="9.52632" fill="#8002FF"/>
<rect x="47.6318" y="47.6313" width="9.52632" height="76.2105" fill="#8002FF"/>
<rect x="123.842" y="47.6313" width="9.52632" height="76.2105" fill="#8002FF"/>
<rect x="95.2627" y="38.1055" width="38.1053" height="9.52632" fill="#8002FF"/>
<rect x="142.895" y="38.1055" width="19.0526" height="9.52632" fill="#8002FF"/>
<rect x="142.895" y="66.6841" width="9.52632" height="19.0526" fill="#8002FF"/>
<rect x="142.895" y="95.2632" width="9.52632" height="19.0526" fill="#8002FF"/>
<rect x="142.895" y="47.6313" width="9.52632" height="9.52632" fill="#8002FF"/>
<rect x="47.6318" y="38.1055" width="38.1053" height="9.52632" fill="#8002FF"/>
<rect x="85.7373" y="47.6313" width="9.52632" height="9.52632" fill="#8002FF"/>
<rect x="114.315" y="123.842" width="9.52632" height="9.52632" fill="#8002FF"/>
<rect x="123.842" y="142.895" width="9.52632" height="9.52632" fill="#8002FF"/>
<rect x="47.6318" y="142.895" width="9.52632" height="9.52632" fill="#8002FF"/>
<rect x="57.1582" y="47.6313" width="28.5789" height="9.52632" fill="#020118"/>
<rect x="95.2627" y="47.6313" width="28.5789" height="9.52632" fill="#020118"/>
<rect x="85.7373" y="95.2632" width="9.52632" height="9.52632" fill="#3F0255"/>
<rect x="95.2627" y="85.7368" width="9.52632" height="9.52632" fill="#3F0255"/>
<rect x="104.789" y="95.2632" width="9.52632" height="9.52632" fill="#3F0255"/>
<rect x="114.315" y="104.79" width="9.52632" height="9.52632" fill="#3F0255"/>
<rect x="95.2627" y="104.79" width="9.52632" height="9.52632" fill="#3F0255"/>
<rect x="104.789" y="114.316" width="9.52632" height="9.52632" fill="#3F0255"/>
<rect x="85.7373" y="152.421" width="19.0526" height="9.52632" fill="#3F0255"/>
<rect x="95.2627" y="161.947" width="9.52632" height="9.52632" fill="#3F0255"/>
<rect x="76.2109" y="161.947" width="9.52632" height="9.52632" fill="#3F0255"/>
<rect x="57.1582" y="142.895" width="19.0526" height="9.52632" fill="#3F0255"/>
<rect x="104.789" y="142.895" width="19.0526" height="9.52632" fill="#3F0255"/>
<rect x="47.6318" y="133.369" width="19.0526" height="9.52632" fill="#3F0255"/>
<rect x="114.315" y="133.369" width="19.0526" height="9.52632" fill="#3F0255"/>
<rect x="47.6318" y="123.842" width="9.52632" height="9.52632" fill="#3F0255"/>
<rect x="123.842" y="123.842" width="9.52632" height="9.52632" fill="#3F0255"/>
<rect x="85.7373" y="171.474" width="9.52632" height="9.52632" fill="#3F0255"/>
<rect x="114.315" y="28.5791" width="9.52632" height="9.52632" fill="#3F0255"/>
<rect x="57.1582" y="28.5791" width="9.52632" height="9.52632" fill="#3F0255"/>
<rect x="76.2109" y="28.5791" width="9.52632" height="9.52632" fill="#3F0255"/>
<rect x="85.7373" y="38.1055" width="9.52632" height="9.52632" fill="#3F0255"/>
<rect x="152.421" y="19.0527" width="9.52632" height="9.52632" fill="#3F0255"/>
<rect x="19.0527" y="19.0527" width="9.52632" height="9.52632" fill="#3F0255"/>
<rect x="95.2627" y="19.0527" width="9.52632" height="19.0526" fill="#3F0255"/>
<rect x="85.7373" y="19.0527" width="9.52632" height="9.52632" fill="#3F0255"/>
<rect x="142.895" y="28.5791" width="19.0526" height="9.52632" fill="#3F0255"/>
<rect x="19.0527" y="28.5791" width="19.0526" height="9.52632" fill="#3F0255"/>
<rect x="76.2109" y="104.79" width="9.52632" height="9.52632" fill="#3F0255"/>
<rect x="66.6846" y="95.2632" width="9.52632" height="9.52632" fill="#3F0255"/>
<rect x="57.1582" y="104.79" width="9.52632" height="9.52632" fill="#3F0255"/>
<rect x="66.6846" y="114.316" width="9.52632" height="9.52632" fill="#3F0255"/>
<rect x="85.7373" y="76.2104" width="9.52632" height="9.52632" fill="#3F0255"/>
<rect x="76.2109" y="66.6841" width="9.52632" height="9.52632" fill="#3F0255"/>
<rect x="95.2627" y="66.6841" width="9.52632" height="9.52632" fill="#3F0255"/>
<rect x="76.2109" y="85.7368" width="9.52632" height="9.52632" fill="#3F0255"/>
<rect x="57.1582" y="76.2104" width="28.5789" height="9.52632" fill="#D9D9D9"/>
<rect x="85.7373" y="47.6313" width="9.52632" height="28.5789" fill="#D9D9D9"/>
<rect x="66.6846" y="104.79" width="9.52632" height="9.52632" fill="#D9D9D9"/>
<rect x="76.2109" y="95.2632" width="9.52632" height="9.52632" fill="#D9D9D9"/>
<rect x="95.2627" y="95.2632" width="9.52632" height="9.52632" fill="#D9D9D9"/>
<rect x="104.789" y="104.79" width="9.52632" height="9.52632" fill="#D9D9D9"/>
<rect x="114.315" y="114.316" width="9.52632" height="9.52632" fill="#D9D9D9"/>
<rect x="57.1582" y="114.316" width="9.52632" height="9.52632" fill="#D9D9D9"/>
<rect x="85.7373" y="142.895" width="9.52632" height="9.52632" fill="#D9D9D9"/>
<rect x="76.2109" y="152.421" width="9.52632" height="9.52632" fill="#D9D9D9"/>
<rect x="133.368" y="133.369" width="9.52632" height="9.52632" fill="#8002FF"/>
<rect x="133.368" y="104.79" width="9.52632" height="9.52632" fill="#3F0255"/>
<rect x="142.895" y="85.7368" width="19.0526" height="9.52632" fill="#3F0255"/>
<rect x="152.421" y="95.2632" width="9.52632" height="9.52632" fill="#3F0255"/>
<rect x="133.368" y="38.1055" width="9.52632" height="57.1579" fill="#3F0255"/>
<rect x="133.368" y="95.2632" width="9.52632" height="9.52632" fill="#D9D9D9"/>
<rect x="152.421" y="76.2104" width="9.52632" height="9.52632" fill="#D9D9D9"/>
<rect x="161.947" y="85.7368" width="9.52632" height="9.52632" fill="#D9D9D9"/>
<rect x="9.52637" y="85.7368" width="9.52632" height="9.52632" fill="#D9D9D9"/>
<rect x="19.0527" y="76.2104" width="9.52632" height="9.52632" fill="#D9D9D9"/>
<rect x="76.2109" y="19.0527" width="9.52632" height="9.52632" fill="#D9D9D9"/>
<rect x="85.7373" y="9.52637" width="9.52632" height="9.52632" fill="#D9D9D9"/>
<rect x="133.368" y="114.316" width="9.52632" height="19.0526" fill="#D9D9D9"/>
<rect width="9.52632" height="9.52632" transform="matrix(-1 0 0 1 38.1055 57.1577)" fill="#020118"/>
<rect width="9.52632" height="28.5789" transform="matrix(-1 0 0 1 19.0527 0)" fill="#020118"/>
<rect width="9.52632" height="9.52632" transform="matrix(-1 0 0 1 28.5791 9.52637)" fill="#020118"/>
<rect width="9.52632" height="9.52632" transform="matrix(-1 0 0 1 76.2109 28.5791)" fill="#020118"/>
<rect width="9.52632" height="9.52632" transform="matrix(-1 0 0 1 95.2627 28.5791)" fill="#020118"/>
<rect width="9.52632" height="9.52632" transform="matrix(-1 0 0 1 85.7373 9.52637)" fill="#020118"/>
<rect width="9.52632" height="9.52632" transform="matrix(-1 0 0 1 95.2627 0)" fill="#020118"/>
<rect width="9.52632" height="9.52632" transform="matrix(-1 0 0 1 104.789 9.52637)" fill="#020118"/>
<rect width="9.52632" height="9.52632" transform="matrix(-1 0 0 1 161.947 9.52637)" fill="#020118"/>
<rect width="9.52632" height="9.52632" transform="matrix(-1 0 0 1 114.315 28.5791)" fill="#020118"/>
<rect width="9.52632" height="28.5789" transform="matrix(-1 0 0 1 171.474 0)" fill="#020118"/>
<rect width="47.6316" height="9.52632" transform="matrix(-1 0 0 1 76.2109 19.0527)" fill="#020118"/>
<rect width="47.6316" height="9.52632" transform="matrix(-1 0 0 1 152.421 19.0527)" fill="#020118"/>
<rect width="9.52632" height="9.52632" transform="matrix(-1 0 0 1 19.0527 76.2104)" fill="#020118"/>
<rect width="9.52632" height="9.52632" transform="matrix(-1 0 0 1 9.52637 85.7368)" fill="#020118"/>
<rect width="9.52632" height="9.52632" transform="matrix(-1 0 0 1 19.0527 95.2632)" fill="#020118"/>
<rect width="9.52632" height="9.52632" transform="matrix(-1 0 0 1 28.5791 66.6841)" fill="#020118"/>
<rect width="9.52632" height="9.52632" transform="matrix(-1 0 0 1 28.5791 104.79)" fill="#020118"/>
<rect width="9.52632" height="19.0526" transform="matrix(-1 0 0 1 38.1055 114.316)" fill="#020118"/>
<rect width="19.0526" height="9.52632" transform="matrix(-1 0 0 1 38.1055 38.1055)" fill="#8002FF"/>
<rect width="9.52632" height="9.52632" transform="matrix(-1 0 0 1 19.0527 28.5791)" fill="#8002FF"/>
<rect width="9.52632" height="9.52632" transform="matrix(-1 0 0 1 171.474 28.5791)" fill="#8002FF"/>
<rect width="9.52632" height="19.0526" transform="matrix(-1 0 0 1 38.1055 66.6841)" fill="#8002FF"/>
<rect width="9.52632" height="19.0526" transform="matrix(-1 0 0 1 38.1055 95.2632)" fill="#8002FF"/>
<rect width="9.52632" height="9.52632" transform="matrix(-1 0 0 1 38.1055 47.6313)" fill="#8002FF"/>
<rect width="9.52632" height="9.52632" transform="matrix(-1 0 0 1 47.6318 133.369)" fill="#8002FF"/>
<rect width="9.52632" height="9.52632" transform="matrix(-1 0 0 1 47.6318 104.79)" fill="#3F0255"/>
<rect width="19.0526" height="9.52632" transform="matrix(-1 0 0 1 38.1055 85.7368)" fill="#3F0255"/>
<rect width="9.52632" height="9.52632" transform="matrix(-1 0 0 1 28.5791 95.2632)" fill="#3F0255"/>
<rect width="9.52632" height="57.1579" transform="matrix(-1 0 0 1 47.6318 38.1055)" fill="#3F0255"/>
<rect width="9.52632" height="9.52632" transform="matrix(-1 0 0 1 47.6318 95.2632)" fill="#D9D9D9"/>
<rect width="9.52632" height="19.0526" transform="matrix(-1 0 0 1 47.6318 114.316)" fill="#D9D9D9"/>
<rect width="19.0526" height="9.52632" transform="matrix(-1 0 0 1 57.1582 28.5791)" fill="#D9D9D9"/>
<rect width="19.0526" height="9.52632" transform="matrix(-1 0 0 1 142.895 28.5791)" fill="#D9D9D9"/>
<rect x="95.2627" y="76.2104" width="28.5789" height="9.52632" fill="#D9D9D9"/>
<rect x="76.2109" y="114.316" width="28.5789" height="9.52632" fill="#0A092B"/>
<rect x="85.7373" y="104.79" width="9.52632" height="9.52632" fill="#0A092B"/>
<rect x="66.6846" y="85.7368" width="9.52632" height="9.52632" fill="#0A092B"/>
<rect x="104.789" y="85.7368" width="9.52632" height="9.52632" fill="#0A092B"/>
<rect x="104.789" y="66.6841" width="9.52632" height="9.52632" fill="#0A092B"/>
<rect x="66.6846" y="66.6841" width="9.52632" height="9.52632" fill="#0A092B"/>
<rect x="95.2627" y="57.1577" width="19.0526" height="9.52632" fill="#0A092B"/>
<rect x="66.6846" y="57.1577" width="19.0526" height="9.52632" fill="#0A092B"/>
</svg>
