<svg width="137" height="190" viewBox="0 0 137 190" fill="none" xmlns="http://www.w3.org/2000/svg">
<rect x="63.2314" y="84.3076" width="10.5384" height="10.5384" fill="#D9D9D9"/>
<rect x="63.2314" y="52.6919" width="10.5384" height="21.0769" fill="#D9D9D9"/>
<rect x="42.1533" y="73.7686" width="52.6919" height="10.5384" fill="#D9D9D9"/>
<rect x="52.6943" y="94.8467" width="10.5384" height="10.5384" fill="#D9D9D9"/>
<rect x="73.7666" y="94.8467" width="10.5384" height="10.5384" fill="#D9D9D9"/>
<rect x="84.3047" y="105.383" width="10.5384" height="10.5384" fill="#D9D9D9"/>
<rect x="52.6943" y="105.383" width="31.6152" height="21.0769" fill="#0A092B"/>
<rect x="73.7666" y="52.6919" width="21.0768" height="21.0769" fill="#0A092B"/>
<rect x="42.1533" y="52.6919" width="21.0768" height="21.0769" fill="#0A092B"/>
<rect x="73.7666" y="84.3076" width="21.0768" height="10.5384" fill="#0A092B"/>
<rect x="63.2314" y="94.8467" width="10.5384" height="10.5384" fill="#0A092B"/>
<rect x="84.3047" y="94.8467" width="10.5384" height="10.5384" fill="#0A092B"/>
<rect width="21.0768" height="10.5384" transform="matrix(-1 0 0 1 63.2314 84.3076)" fill="#0A092B"/>
<rect width="10.5384" height="10.5384" transform="matrix(-1 0 0 1 52.6943 94.8467)" fill="#0A092B"/>
<rect x="42.1533" y="105.383" width="10.5384" height="10.5384" fill="#D9D9D9"/>
<rect x="63.2314" y="147.539" width="10.5384" height="10.5384" fill="#D9D9D9"/>
<rect x="115.921" y="115.922" width="10.5384" height="21.0769" fill="#D9D9D9"/>
<rect x="115.921" y="94.8467" width="10.5384" height="10.5384" fill="#D9D9D9"/>
<rect x="63.2314" y="10.5391" width="10.5384" height="10.5384" fill="#D9D9D9"/>
<rect x="52.6943" y="21.0771" width="10.5384" height="10.5384" fill="#D9D9D9"/>
<rect x="10.5381" y="94.8467" width="10.5384" height="10.5384" fill="#D9D9D9"/>
<rect x="10.5381" y="115.922" width="10.5384" height="21.0769" fill="#D9D9D9"/>
<rect x="52.6943" y="158.078" width="10.5384" height="10.5384" fill="#D9D9D9"/>
<rect x="42.1533" y="115.922" width="10.5384" height="21.0769" fill="#8002FF"/>
<rect x="84.3047" y="115.922" width="10.5384" height="21.0769" fill="#8002FF"/>
<rect x="73.7666" y="126.461" width="10.5384" height="21.0769" fill="#8002FF"/>
<rect x="63.2314" y="179.153" width="10.5384" height="10.5384" fill="#8002FF"/>
<rect x="42.1533" y="21.0771" width="10.5384" height="10.5384" fill="#8002FF"/>
<rect x="84.3047" y="21.0771" width="10.5384" height="10.5384" fill="#8002FF"/>
<rect x="63.2314" width="10.5384" height="10.5384" fill="#8002FF"/>
<rect y="52.6919" width="10.5384" height="10.5384" fill="#8002FF"/>
<rect y="73.7686" width="10.5384" height="63.2306" fill="#8002FF"/>
<rect x="94.8457" y="158.078" width="10.5384" height="10.5384" fill="#8002FF"/>
<rect x="31.6162" y="158.078" width="10.5384" height="10.5384" fill="#8002FF"/>
<rect x="52.6943" y="126.461" width="10.5384" height="21.0769" fill="#8002FF"/>
<rect x="42.1533" y="158.078" width="10.5384" height="21.0769" fill="#8002FF"/>
<rect x="84.3047" y="158.078" width="10.5384" height="21.0769" fill="#8002FF"/>
<rect x="63.2314" y="126.461" width="10.5384" height="10.5384" fill="#8002FF"/>
<rect x="73.7666" y="42.1523" width="31.6152" height="10.5384" fill="#8002FF"/>
<rect x="31.6162" y="42.1523" width="31.6152" height="10.5384" fill="#8002FF"/>
<rect x="10.5381" y="10.5391" width="52.6919" height="10.5384" fill="#8002FF"/>
<rect x="73.7666" y="10.5391" width="52.6919" height="10.5384" fill="#8002FF"/>
<rect x="31.6162" y="52.6919" width="10.5384" height="73.7691" fill="#8002FF"/>
<rect x="94.8457" y="52.6919" width="10.5384" height="73.7691" fill="#8002FF"/>
<rect x="63.2314" y="137" width="10.5384" height="10.5384" fill="#020118"/>
<rect x="52.6943" y="147.539" width="10.5384" height="10.5384" fill="#020118"/>
<rect x="52.6943" y="168.615" width="10.5384" height="10.5384" fill="#020118"/>
<rect x="73.7666" y="168.615" width="10.5384" height="10.5384" fill="#020118"/>
<rect y="21.0771" width="10.5384" height="31.6153" fill="#020118"/>
<rect y="63.231" width="10.5384" height="10.5384" fill="#020118"/>
<rect x="126.461" y="52.6919" width="10.5384" height="10.5384" fill="#8002FF"/>
<rect x="126.461" y="73.7686" width="10.5384" height="63.2306" fill="#8002FF"/>
<rect x="126.461" y="21.0771" width="10.5384" height="31.6153" fill="#020118"/>
<rect x="126.461" y="63.231" width="10.5384" height="10.5384" fill="#020118"/>
<rect x="73.7666" y="147.539" width="10.5384" height="10.5384" fill="#020118"/>
<rect x="84.3047" y="137" width="10.5384" height="10.5384" fill="#020118"/>
<rect x="94.8457" y="126.461" width="10.5384" height="10.5384" fill="#020118"/>
<rect x="63.2314" y="42.1523" width="10.5384" height="10.5384" fill="#020118"/>
<rect x="73.7666" y="31.6162" width="42.1535" height="10.5384" fill="#020118"/>
<rect x="21.0781" y="31.6162" width="42.1535" height="10.5384" fill="#020118"/>
<rect x="21.0781" y="42.1523" width="10.5384" height="84.3075" fill="#020118"/>
<rect x="105.383" y="42.1523" width="10.5384" height="84.3075" fill="#020118"/>
<rect x="42.1533" y="137" width="10.5384" height="10.5384" fill="#020118"/>
<rect x="21.0781" y="147.539" width="10.5384" height="10.5384" fill="#020118"/>
<rect x="10.5381" y="137" width="10.5384" height="10.5384" fill="#020118"/>
<rect x="105.383" y="147.539" width="10.5384" height="10.5384" fill="#020118"/>
<rect x="115.921" y="137" width="10.5384" height="10.5384" fill="#020118"/>
<rect x="63.2314" y="168.615" width="10.5384" height="10.5384" fill="#3F0255"/>
<rect x="63.2314" y="31.6162" width="10.5384" height="10.5384" fill="#3F0255"/>
<rect x="105.383" y="126.461" width="10.5384" height="10.5384" fill="#3F0255"/>
<rect x="94.8457" y="21.0771" width="31.6152" height="10.5384" fill="#3F0255"/>
<rect x="10.5381" y="21.0771" width="31.6152" height="10.5384" fill="#3F0255"/>
<rect x="63.2314" y="158.078" width="21.0768" height="10.5384" fill="#3F0255"/>
<rect x="63.2314" y="21.0771" width="21.0768" height="10.5384" fill="#3F0255"/>
<rect x="84.3047" y="147.539" width="21.0768" height="10.5384" fill="#3F0255"/>
<rect x="94.8457" y="137" width="21.0768" height="10.5384" fill="#3F0255"/>
<rect width="10.5384" height="10.5384" transform="matrix(-1 0 0 1 42.1533 126.461)" fill="#020118"/>
<rect width="10.5384" height="10.5384" transform="matrix(-1 0 0 1 31.6162 126.461)" fill="#3F0255"/>
<rect width="10.5384" height="10.5384" transform="matrix(-1 0 0 1 21.0781 105.383)" fill="#3F0255"/>
<rect width="10.5384" height="63.2306" transform="matrix(-1 0 0 1 21.0781 31.6162)" fill="#3F0255"/>
<rect width="10.5384" height="63.2306" transform="matrix(-1 0 0 1 126.461 31.6162)" fill="#3F0255"/>
<rect width="10.5384" height="10.5384" transform="matrix(-1 0 0 1 126.461 105.383)" fill="#3F0255"/>
<rect width="21.0768" height="10.5384" transform="matrix(-1 0 0 1 52.6943 147.539)" fill="#3F0255"/>
<rect width="21.0768" height="10.5384" transform="matrix(-1 0 0 1 42.1533 137)" fill="#3F0255"/>
</svg>
