<svg width="170" height="179" viewBox="0 0 170 179" fill="none" xmlns="http://www.w3.org/2000/svg">
<rect x="79.5557" y="69.6113" width="9.94444" height="29.8333" fill="#3F0255"/>
<rect x="79.5557" y="149.167" width="9.94444" height="19.8889" fill="#3F0255"/>
<rect x="89.5" y="149.167" width="9.94444" height="9.94444" fill="#3F0255"/>
<rect x="79.5557" y="19.8887" width="9.94444" height="19.8889" fill="#3F0255"/>
<rect x="89.5" y="19.8887" width="9.94444" height="9.94444" fill="#3F0255"/>
<rect x="139.223" y="19.8887" width="19.8889" height="9.94444" fill="#3F0255"/>
<rect x="109.389" y="19.8887" width="9.94444" height="9.94444" fill="#3F0255"/>
<rect x="49.7227" y="19.8887" width="9.94444" height="9.94444" fill="#3F0255"/>
<rect x="9.94434" y="19.8887" width="19.8889" height="9.94444" fill="#3F0255"/>
<rect x="119.333" y="119.333" width="9.94444" height="9.94444" fill="#3F0255"/>
<rect x="129.277" y="99.4443" width="9.94444" height="9.94444" fill="#3F0255"/>
<rect x="29.833" y="99.4443" width="9.94444" height="9.94444" fill="#3F0255"/>
<rect x="29.833" y="29.8335" width="9.94444" height="59.6667" fill="#3F0255"/>
<rect x="129.277" y="29.8335" width="9.94444" height="59.6667" fill="#3F0255"/>
<rect x="39.7773" y="119.333" width="9.94444" height="9.94444" fill="#3F0255"/>
<rect x="99.4443" y="139.222" width="19.8889" height="9.94444" fill="#3F0255"/>
<rect x="49.7227" y="139.222" width="19.8889" height="9.94444" fill="#3F0255"/>
<rect x="109.389" y="129.278" width="19.8889" height="9.94444" fill="#3F0255"/>
<rect x="39.7773" y="129.278" width="19.8889" height="9.94444" fill="#3F0255"/>
<rect x="99.4443" y="79.5557" width="9.94444" height="29.8333" transform="rotate(90 99.4443 79.5557)" fill="#3F0255"/>
<rect x="69.6113" y="89.5" width="9.94444" height="9.94444" fill="#D9D9D9"/>
<rect x="89.5" y="89.5" width="9.94444" height="9.94444" fill="#D9D9D9"/>
<rect x="99.4443" y="99.4443" width="9.94444" height="9.94444" fill="#D9D9D9"/>
<rect x="59.667" y="99.4443" width="9.94444" height="9.94444" fill="#D9D9D9"/>
<rect x="79.5557" y="139.222" width="9.94444" height="9.94444" fill="#D9D9D9"/>
<rect x="29.833" y="89.5" width="9.94444" height="9.94444" fill="#D9D9D9"/>
<rect x="129.277" y="89.5" width="9.94444" height="9.94444" fill="#D9D9D9"/>
<rect x="119.333" y="19.8887" width="19.8889" height="9.94444" fill="#D9D9D9"/>
<rect x="29.833" y="19.8887" width="19.8889" height="9.94444" fill="#D9D9D9"/>
<rect x="69.6113" y="19.8887" width="9.94444" height="9.94444" fill="#D9D9D9"/>
<rect x="79.5557" y="9.94434" width="9.94444" height="9.94444" fill="#D9D9D9"/>
<rect x="69.6113" y="149.167" width="9.94444" height="9.94444" fill="#D9D9D9"/>
<rect x="29.833" y="109.389" width="9.94444" height="19.8889" fill="#D9D9D9"/>
<rect x="129.277" y="109.389" width="9.94444" height="19.8889" fill="#D9D9D9"/>
<rect x="89.5" y="69.6113" width="19.8889" height="9.94444" fill="#D9D9D9"/>
<rect x="59.667" y="69.6113" width="19.8889" height="9.94444" fill="#D9D9D9"/>
<rect x="89.5" y="49.7222" width="19.8889" height="9.94444" transform="rotate(90 89.5 49.7222)" fill="#D9D9D9"/>
<rect x="69.6113" y="99.4443" width="29.8333" height="19.8889" fill="#0A092B"/>
<rect x="99.4443" y="79.5557" width="9.94444" height="19.8889" fill="#0A092B"/>
<rect x="59.667" y="79.5557" width="9.94444" height="19.8889" fill="#0A092B"/>
<rect x="59.667" y="49.7222" width="19.8889" height="19.8889" fill="#0A092B"/>
<rect x="89.5" y="49.7222" width="19.8889" height="19.8889" fill="#0A092B"/>
<rect x="49.7227" y="39.7778" width="29.8333" height="9.94444" fill="#020118"/>
<rect x="89.5" y="39.7778" width="29.8333" height="9.94444" fill="#020118"/>
<rect x="89.5" y="9.94434" width="79.5556" height="9.94444" fill="#020118"/>
<rect y="9.94434" width="79.5556" height="9.94444" fill="#020118"/>
<rect x="99.4443" y="109.389" width="19.8889" height="9.94444" fill="#020118"/>
<rect x="49.7227" y="109.389" width="19.8889" height="9.94444" fill="#020118"/>
<rect x="59.667" y="119.333" width="49.7222" height="9.94444" fill="#020118"/>
<rect x="69.6113" y="129.278" width="9.94444" height="9.94444" fill="#020118"/>
<rect x="89.5" y="129.278" width="9.94444" height="9.94444" fill="#020118"/>
<rect x="79.5557" y="169.056" width="9.94444" height="9.94444" fill="#020118"/>
<rect x="139.223" y="49.7222" width="9.94444" height="9.94444" fill="#020118"/>
<rect x="139.223" y="69.6113" width="9.94444" height="59.6667" fill="#020118"/>
<rect x="159.111" y="19.8887" width="9.94444" height="9.94444" fill="#020118"/>
<rect y="19.8887" width="9.94444" height="9.94444" fill="#020118"/>
<rect x="99.4443" y="19.8887" width="9.94444" height="9.94444" fill="#020118"/>
<rect x="59.667" y="19.8887" width="9.94444" height="9.94444" fill="#020118"/>
<rect x="79.5557" width="9.94444" height="9.94444" fill="#020118"/>
<rect x="59.667" y="149.167" width="9.94444" height="19.8889" fill="#020118"/>
<rect x="49.7227" y="149.167" width="9.94444" height="9.94444" fill="#020118"/>
<rect width="9.94444" height="19.8889" transform="matrix(-1 0 0 1 109.389 149.167)" fill="#020118"/>
<rect width="9.94444" height="9.94444" transform="matrix(-1 0 0 1 119.333 149.167)" fill="#020118"/>
<rect x="109.389" y="49.7222" width="9.94444" height="59.6667" fill="#020118"/>
<rect x="49.7227" y="49.7222" width="9.94444" height="59.6667" fill="#020118"/>
<rect x="79.5557" y="129.278" width="9.94444" height="9.94444" fill="#8002FF"/>
<rect x="79.5557" y="39.7778" width="9.94444" height="9.94444" fill="#8002FF"/>
<rect x="69.6113" y="139.222" width="9.94444" height="9.94444" fill="#8002FF"/>
<rect x="89.5" y="139.222" width="9.94444" height="9.94444" fill="#8002FF"/>
<rect x="89.5" y="159.111" width="9.94444" height="9.94444" fill="#8002FF"/>
<rect x="69.6113" y="159.111" width="9.94444" height="9.94444" fill="#8002FF"/>
<rect x="99.4443" y="129.278" width="9.94444" height="9.94444" fill="#8002FF"/>
<rect x="119.333" y="139.222" width="9.94444" height="9.94444" fill="#8002FF"/>
<rect x="129.277" y="129.278" width="9.94444" height="9.94444" fill="#8002FF"/>
<rect x="29.833" y="129.278" width="9.94444" height="9.94444" fill="#8002FF"/>
<rect x="9.94434" y="29.8335" width="9.94444" height="9.94444" fill="#8002FF"/>
<rect x="19.8887" y="29.8335" width="9.94444" height="9.94444" fill="#8002FF"/>
<rect x="19.8887" y="39.7778" width="9.94444" height="9.94444" fill="#8002FF"/>
<rect width="9.94444" height="9.94444" transform="matrix(-1 0 0 1 159.111 29.8335)" fill="#8002FF"/>
<rect width="9.94444" height="9.94444" transform="matrix(-1 0 0 1 149.167 29.8335)" fill="#8002FF"/>
<rect width="9.94444" height="9.94444" transform="matrix(-1 0 0 1 149.167 39.7778)" fill="#8002FF"/>
<rect width="9.94444" height="9.94444" transform="matrix(-1 0 0 1 149.167 59.6665)" fill="#8002FF"/>
<rect x="19.8887" y="49.7222" width="9.94444" height="9.94444" fill="#020118"/>
<rect x="19.8887" y="69.6113" width="9.94444" height="59.6667" fill="#020118"/>
<rect width="9.94444" height="9.94444" transform="matrix(-1 0 0 1 29.833 59.6665)" fill="#8002FF"/>
<rect x="39.7773" y="139.222" width="9.94444" height="9.94444" fill="#8002FF"/>
<rect x="109.389" y="119.333" width="9.94444" height="9.94444" fill="#8002FF"/>
<rect x="59.667" y="129.278" width="9.94444" height="9.94444" fill="#8002FF"/>
<rect x="49.7227" y="119.333" width="9.94444" height="9.94444" fill="#8002FF"/>
<rect x="39.7773" y="39.7778" width="9.94444" height="79.5556" fill="#8002FF"/>
<rect x="119.333" y="39.7778" width="9.94444" height="79.5556" fill="#8002FF"/>
<rect x="89.5" y="29.8335" width="39.7778" height="9.94444" fill="#8002FF"/>
<rect x="39.7773" y="29.8335" width="39.7778" height="9.94444" fill="#8002FF"/>
</svg>
