<svg width="141" height="173" viewBox="0 0 141 173" fill="none" xmlns="http://www.w3.org/2000/svg">
<rect x="64.875" y="75.6875" width="10.8125" height="10.8125" fill="#D9D9D9"/>
<rect x="64.875" y="54.0625" width="10.8125" height="10.8125" fill="#D9D9D9"/>
<rect x="54.0625" y="64.875" width="32.4375" height="10.8125" fill="#D9D9D9"/>
<rect x="54.0625" y="86.5" width="10.8125" height="10.8125" fill="#D9D9D9"/>
<rect x="75.6875" y="86.5" width="10.8125" height="10.8125" fill="#D9D9D9"/>
<rect x="54.0625" y="108.125" width="32.4375" height="10.8125" fill="#0A092B"/>
<rect x="43.25" y="97.3125" width="54.0625" height="10.8125" fill="#0A092B"/>
<rect x="86.5" y="43.25" width="10.8125" height="32.4375" fill="#0A092B"/>
<rect x="75.6875" y="43.25" width="10.8125" height="21.625" fill="#0A092B"/>
<rect x="43.25" y="54.0625" width="21.625" height="10.8125" fill="#0A092B"/>
<rect x="43.25" y="64.875" width="10.8125" height="10.8125" fill="#0A092B"/>
<rect x="43.25" y="43.25" width="32.4375" height="10.8125" fill="#0A092B"/>
<rect x="75.6875" y="75.6875" width="21.625" height="10.8125" fill="#0A092B"/>
<rect x="64.875" y="86.5" width="10.8125" height="10.8125" fill="#0A092B"/>
<rect x="86.5" y="86.5" width="10.8125" height="10.8125" fill="#0A092B"/>
<rect width="21.625" height="10.8125" transform="matrix(-1 0 0 1 64.875 75.6875)" fill="#0A092B"/>
<rect width="10.8125" height="10.8125" transform="matrix(-1 0 0 1 54.0625 86.5)" fill="#0A092B"/>
<rect x="118.938" y="108.125" width="10.8125" height="21.625" fill="#D9D9D9"/>
<rect x="118.938" y="86.5" width="10.8125" height="10.8125" fill="#D9D9D9"/>
<rect x="43.25" y="10.8125" width="21.625" height="10.8125" fill="#D9D9D9"/>
<rect x="10.8125" y="86.5" width="10.8125" height="10.8125" fill="#D9D9D9"/>
<rect x="10.8125" y="108.125" width="10.8125" height="21.625" fill="#D9D9D9"/>
<rect x="43.25" y="108.125" width="10.8125" height="21.625" fill="#020118"/>
<rect x="86.5" y="108.125" width="10.8125" height="21.625" fill="#020118"/>
<rect x="75.6875" y="118.938" width="10.8125" height="21.625" fill="#020118"/>
<rect x="75.6875" y="10.8125" width="10.8125" height="10.8125" fill="#D9D9D9"/>
<rect y="43.25" width="10.8125" height="10.8125" fill="#020118"/>
<rect y="64.875" width="10.8125" height="64.875" fill="#020118"/>
<rect x="97.3125" y="151.375" width="10.8125" height="10.8125" fill="#020118"/>
<rect x="32.4375" y="151.375" width="10.8125" height="10.8125" fill="#020118"/>
<rect x="54.0625" y="118.938" width="10.8125" height="21.625" fill="#020118"/>
<rect x="43.25" y="162.188" width="10.8125" height="10.8125" fill="#020118"/>
<rect x="86.5" y="162.188" width="10.8125" height="10.8125" fill="#020118"/>
<rect x="64.875" y="118.938" width="10.8125" height="21.625" fill="#020118"/>
<rect x="64.875" y="32.4375" width="43.25" height="10.8125" fill="#020118"/>
<rect x="32.4375" y="32.4375" width="32.4375" height="10.8125" fill="#020118"/>
<rect x="10.8125" width="54.0625" height="10.8125" fill="#020118"/>
<rect x="64.875" width="64.875" height="10.8125" fill="#020118"/>
<rect x="32.4375" y="43.25" width="10.8125" height="75.6875" fill="#020118"/>
<rect x="97.3125" y="43.25" width="10.8125" height="75.6875" fill="#020118"/>
<rect x="54.0625" y="140.562" width="10.8125" height="10.8125" fill="#8002FF"/>
<rect x="54.0625" y="162.188" width="32.4375" height="10.8125" fill="#8002FF"/>
<rect y="10.8125" width="10.8125" height="32.4375" fill="#8002FF"/>
<rect y="54.0625" width="10.8125" height="10.8125" fill="#8002FF"/>
<rect x="129.75" y="43.25" width="10.8125" height="10.8125" fill="#020118"/>
<rect x="129.75" y="64.875" width="10.8125" height="64.875" fill="#020118"/>
<rect x="129.75" y="10.8125" width="10.8125" height="32.4375" fill="#8002FF"/>
<rect x="129.75" y="54.0625" width="10.8125" height="10.8125" fill="#8002FF"/>
<rect x="64.875" y="140.562" width="21.625" height="10.8125" fill="#8002FF"/>
<rect x="86.5" y="129.75" width="10.8125" height="10.8125" fill="#8002FF"/>
<rect x="97.3125" y="118.938" width="10.8125" height="10.8125" fill="#8002FF"/>
<rect x="64.875" y="21.625" width="10.8125" height="10.8125" fill="#8002FF"/>
<rect x="75.6875" y="21.625" width="43.25" height="10.8125" fill="#8002FF"/>
<rect x="21.625" y="21.625" width="43.25" height="10.8125" fill="#8002FF"/>
<rect x="21.625" y="32.4375" width="10.8125" height="86.5" fill="#8002FF"/>
<rect x="108.125" y="32.4375" width="10.8125" height="86.5" fill="#8002FF"/>
<rect x="43.25" y="129.75" width="10.8125" height="10.8125" fill="#8002FF"/>
<rect x="21.625" y="140.562" width="10.8125" height="10.8125" fill="#8002FF"/>
<rect x="10.8125" y="129.75" width="10.8125" height="10.8125" fill="#8002FF"/>
<rect x="108.125" y="140.562" width="10.8125" height="10.8125" fill="#8002FF"/>
<rect x="118.938" y="129.75" width="10.8125" height="10.8125" fill="#8002FF"/>
<rect x="108.125" y="118.938" width="10.8125" height="10.8125" fill="#3F0255"/>
<rect x="86.5" y="10.8125" width="43.25" height="10.8125" fill="#3F0255"/>
<rect x="10.8125" y="10.8125" width="32.4375" height="10.8125" fill="#3F0255"/>
<rect x="43.25" y="151.375" width="54.0625" height="10.8125" fill="#3F0255"/>
<rect x="64.875" y="10.8125" width="10.8125" height="10.8125" fill="#3F0255"/>
<rect x="86.5" y="140.562" width="21.625" height="10.8125" fill="#3F0255"/>
<rect x="97.3125" y="129.75" width="21.625" height="10.8125" fill="#3F0255"/>
<rect width="10.8125" height="10.8125" transform="matrix(-1 0 0 1 43.25 118.938)" fill="#8002FF"/>
<rect width="10.8125" height="10.8125" transform="matrix(-1 0 0 1 32.4375 118.938)" fill="#3F0255"/>
<rect width="10.8125" height="10.8125" transform="matrix(-1 0 0 1 21.625 97.3125)" fill="#3F0255"/>
<rect width="10.8125" height="64.875" transform="matrix(-1 0 0 1 21.625 21.625)" fill="#3F0255"/>
<rect width="10.8125" height="64.875" transform="matrix(-1 0 0 1 129.75 21.625)" fill="#3F0255"/>
<rect width="10.8125" height="10.8125" transform="matrix(-1 0 0 1 129.75 97.3125)" fill="#3F0255"/>
<rect width="21.625" height="10.8125" transform="matrix(-1 0 0 1 54.0625 140.562)" fill="#3F0255"/>
<rect width="21.625" height="10.8125" transform="matrix(-1 0 0 1 43.25 129.75)" fill="#3F0255"/>
</svg>
