<svg width="190" height="199" viewBox="0 0 190 199" fill="none" xmlns="http://www.w3.org/2000/svg">
<rect x="89.5508" y="89.5503" width="9.95006" height="9.95" fill="#020118"/>
<rect x="119.401" y="59.6997" width="9.95006" height="59.7" fill="#020118"/>
<rect x="59.7012" y="59.6997" width="9.95006" height="59.7" fill="#020118"/>
<rect x="59.7012" y="119.4" width="19.9001" height="9.95" fill="#020118"/>
<rect x="109.452" y="119.4" width="19.9001" height="9.95" fill="#020118"/>
<rect x="69.6514" y="129.35" width="49.7503" height="9.95" fill="#020118"/>
<rect x="79.6016" y="139.3" width="9.95006" height="9.95" fill="#020118"/>
<rect x="89.5508" y="169.15" width="9.95006" height="9.95" fill="#020118"/>
<rect x="149.251" y="59.6997" width="9.95006" height="9.95" fill="#020118"/>
<rect x="169.15" y="79.6001" width="9.95006" height="9.95" fill="#020118"/>
<rect x="179.102" y="89.5503" width="9.95006" height="9.95" fill="#020118"/>
<rect x="169.15" y="99.5" width="9.95006" height="9.95" fill="#020118"/>
<rect x="159.201" y="69.6499" width="9.95006" height="9.95" fill="#020118"/>
<rect x="159.201" y="109.45" width="9.95006" height="9.95" fill="#020118"/>
<rect x="119.401" y="159.2" width="9.95006" height="9.95" fill="#020118"/>
<rect x="149.251" y="119.4" width="9.95006" height="19.9" fill="#020118"/>
<rect x="89.5508" y="189.05" width="9.95006" height="9.95" fill="#020118"/>
<rect x="109.452" y="159.2" width="9.95006" height="19.9" fill="#020118"/>
<rect x="79.6016" y="169.15" width="9.95" height="9.95006" transform="rotate(90 79.6016 169.15)" fill="#020118"/>
<rect x="79.6016" y="159.2" width="9.95" height="19.9001" transform="rotate(90 79.6016 159.2)" fill="#020118"/>
<rect x="99.502" y="139.3" width="9.95006" height="9.95" fill="#020118"/>
<rect x="109.452" y="139.3" width="9.95006" height="9.95" fill="#8002FF"/>
<rect x="99.502" y="149.25" width="9.95006" height="9.95" fill="#8002FF"/>
<rect x="89.5508" y="139.3" width="9.95006" height="9.95" fill="#8002FF"/>
<rect x="79.6016" y="149.25" width="9.95006" height="9.95" fill="#8002FF"/>
<rect x="79.6016" y="179.1" width="9.95006" height="9.95" fill="#8002FF"/>
<rect x="99.502" y="179.1" width="9.95006" height="9.95" fill="#8002FF"/>
<rect x="69.6514" y="139.3" width="9.95006" height="9.95" fill="#8002FF"/>
<rect x="59.7012" y="129.35" width="9.95006" height="9.95" fill="#8002FF"/>
<rect x="49.751" y="49.75" width="9.95006" height="79.6" fill="#8002FF"/>
<rect x="129.352" y="49.75" width="9.95006" height="79.6" fill="#8002FF"/>
<rect x="99.502" y="39.8003" width="39.8003" height="9.95" fill="#8002FF"/>
<rect x="149.251" y="39.8003" width="19.9001" height="9.95" fill="#8002FF"/>
<rect x="149.251" y="69.6499" width="9.95006" height="19.9" fill="#8002FF"/>
<rect x="149.251" y="99.5" width="9.95006" height="19.9" fill="#8002FF"/>
<rect x="149.251" y="49.75" width="9.95006" height="9.95" fill="#8002FF"/>
<rect x="49.751" y="39.8003" width="39.8003" height="9.95" fill="#8002FF"/>
<rect x="89.5508" y="49.75" width="9.95006" height="9.95" fill="#8002FF"/>
<rect x="119.401" y="129.35" width="9.95006" height="9.95" fill="#8002FF"/>
<rect x="129.352" y="149.25" width="9.95006" height="9.95" fill="#8002FF"/>
<rect x="49.751" y="149.25" width="9.95006" height="9.95" fill="#8002FF"/>
<rect x="59.7012" y="49.75" width="29.8502" height="9.95" fill="#020118"/>
<rect x="99.502" y="49.75" width="29.8502" height="9.95" fill="#020118"/>
<rect x="89.5508" y="99.5" width="9.95006" height="9.95" fill="#3F0255"/>
<rect x="99.502" y="89.5503" width="9.95006" height="9.95" fill="#3F0255"/>
<rect x="109.452" y="99.5" width="9.95006" height="9.95" fill="#3F0255"/>
<rect x="99.502" y="109.45" width="9.95006" height="9.95" fill="#3F0255"/>
<rect x="89.5508" y="159.2" width="19.9001" height="9.95" fill="#3F0255"/>
<rect x="99.502" y="169.15" width="9.95006" height="9.95" fill="#3F0255"/>
<rect x="79.6016" y="169.15" width="9.95006" height="9.95" fill="#3F0255"/>
<rect x="59.7012" y="149.25" width="19.9001" height="9.95" fill="#3F0255"/>
<rect x="109.452" y="149.25" width="19.9001" height="9.95" fill="#3F0255"/>
<rect x="49.751" y="139.3" width="19.9001" height="9.95" fill="#3F0255"/>
<rect x="119.401" y="139.3" width="19.9001" height="9.95" fill="#3F0255"/>
<rect x="49.751" y="129.35" width="9.95006" height="9.95" fill="#3F0255"/>
<rect x="129.352" y="129.35" width="9.95006" height="9.95" fill="#3F0255"/>
<rect x="89.5508" y="179.1" width="9.95006" height="9.95" fill="#3F0255"/>
<rect x="119.401" y="29.8501" width="9.95006" height="9.95" fill="#3F0255"/>
<rect x="59.7012" y="29.8501" width="9.95006" height="9.95" fill="#3F0255"/>
<rect x="79.6016" y="29.8501" width="9.95006" height="9.95" fill="#3F0255"/>
<rect x="89.5508" y="39.8003" width="9.95006" height="9.95" fill="#3F0255"/>
<rect x="99.502" y="19.8999" width="9.95006" height="19.9" fill="#3F0255"/>
<rect x="89.5508" y="19.8999" width="9.95006" height="9.95" fill="#3F0255"/>
<rect x="149.251" y="29.8501" width="19.9001" height="9.95" fill="#3F0255"/>
<rect x="19.9004" y="29.8501" width="19.9001" height="9.95" fill="#3F0255"/>
<rect x="79.6016" y="109.45" width="9.95006" height="9.95" fill="#3F0255"/>
<rect x="69.6514" y="99.5" width="9.95006" height="9.95" fill="#3F0255"/>
<rect x="89.5508" y="79.6001" width="9.95006" height="9.95" fill="#3F0255"/>
<rect x="79.6016" y="69.6499" width="9.95006" height="9.95" fill="#3F0255"/>
<rect x="99.502" y="69.6499" width="9.95006" height="9.95" fill="#3F0255"/>
<rect x="79.6016" y="89.5503" width="9.95006" height="9.95" fill="#3F0255"/>
<rect x="69.6514" y="79.6001" width="19.9001" height="9.95" fill="#D9D9D9"/>
<rect x="89.5508" y="59.6997" width="9.95006" height="19.9" fill="#D9D9D9"/>
<rect x="69.6514" y="109.45" width="9.95006" height="9.95" fill="#D9D9D9"/>
<rect x="79.6016" y="99.5" width="9.95006" height="9.95" fill="#D9D9D9"/>
<rect x="99.502" y="99.5" width="9.95006" height="9.95" fill="#D9D9D9"/>
<rect x="109.452" y="109.45" width="9.95006" height="9.95" fill="#D9D9D9"/>
<rect x="89.5508" y="149.25" width="9.95006" height="9.95" fill="#D9D9D9"/>
<rect x="79.6016" y="159.2" width="9.95006" height="9.95" fill="#D9D9D9"/>
<rect x="139.302" y="139.3" width="9.95006" height="9.95" fill="#8002FF"/>
<rect x="139.302" y="109.45" width="9.95006" height="9.95" fill="#3F0255"/>
<rect x="149.251" y="89.5503" width="19.9001" height="9.95" fill="#3F0255"/>
<rect x="159.201" y="99.5" width="9.95006" height="9.95" fill="#3F0255"/>
<rect x="139.302" y="39.8003" width="9.95006" height="59.7" fill="#3F0255"/>
<rect x="139.302" y="99.5" width="9.95006" height="9.95" fill="#D9D9D9"/>
<rect x="159.201" y="79.6001" width="9.95006" height="9.95" fill="#D9D9D9"/>
<rect x="169.15" y="89.5503" width="9.95006" height="9.95" fill="#D9D9D9"/>
<rect x="9.9502" y="89.5503" width="9.95006" height="9.95" fill="#D9D9D9"/>
<rect x="19.9004" y="79.6001" width="9.95006" height="9.95" fill="#D9D9D9"/>
<rect x="79.6016" y="19.8999" width="9.95006" height="9.95" fill="#D9D9D9"/>
<rect x="89.5508" y="9.94971" width="9.95006" height="9.95" fill="#D9D9D9"/>
<rect x="139.302" y="119.4" width="9.95006" height="19.9" fill="#D9D9D9"/>
<rect width="9.95006" height="9.95" transform="matrix(-1 0 0 1 39.8008 59.6997)" fill="#020118"/>
<rect width="9.95006" height="9.95" transform="matrix(-1 0 0 1 19.9004 29.8501)" fill="#020118"/>
<rect width="9.95006" height="9.95" transform="matrix(-1 0 0 1 79.6016 29.8501)" fill="#020118"/>
<rect width="9.95006" height="9.95" transform="matrix(-1 0 0 1 99.502 29.8501)" fill="#020118"/>
<rect width="9.95006" height="9.95" transform="matrix(-1 0 0 1 89.5508 9.94971)" fill="#020118"/>
<rect width="9.95006" height="9.95" transform="matrix(-1 0 0 1 99.502 0)" fill="#020118"/>
<rect width="9.95006" height="9.95" transform="matrix(-1 0 0 1 109.452 9.94971)" fill="#020118"/>
<rect width="9.95006" height="9.95" transform="matrix(-1 0 0 1 119.401 29.8501)" fill="#020118"/>
<rect width="9.95006" height="9.95" transform="matrix(-1 0 0 1 179.102 29.8501)" fill="#020118"/>
<rect width="69.6504" height="9.95" transform="matrix(-1 0 0 1 79.6016 19.8999)" fill="#020118"/>
<rect width="69.6504" height="9.95" transform="matrix(-1 0 0 1 179.102 19.8999)" fill="#020118"/>
<rect width="9.95006" height="9.95" transform="matrix(-1 0 0 1 19.9004 79.6001)" fill="#020118"/>
<rect width="9.95006" height="9.95" transform="matrix(-1 0 0 1 9.9502 89.5503)" fill="#020118"/>
<rect width="9.95006" height="9.95" transform="matrix(-1 0 0 1 19.9004 99.5)" fill="#020118"/>
<rect width="9.95006" height="9.95" transform="matrix(-1 0 0 1 29.8516 69.6499)" fill="#020118"/>
<rect width="9.95006" height="9.95" transform="matrix(-1 0 0 1 29.8516 109.45)" fill="#020118"/>
<rect width="9.95006" height="19.9" transform="matrix(-1 0 0 1 39.8008 119.4)" fill="#020118"/>
<rect width="19.9001" height="9.95" transform="matrix(-1 0 0 1 39.8008 39.8003)" fill="#8002FF"/>
<rect width="9.95006" height="19.9" transform="matrix(-1 0 0 1 39.8008 69.6499)" fill="#8002FF"/>
<rect width="9.95006" height="19.9" transform="matrix(-1 0 0 1 39.8008 99.5)" fill="#8002FF"/>
<rect width="9.95006" height="9.95" transform="matrix(-1 0 0 1 39.8008 49.75)" fill="#8002FF"/>
<rect width="9.95006" height="9.95" transform="matrix(-1 0 0 1 49.751 139.3)" fill="#8002FF"/>
<rect width="9.95006" height="9.95" transform="matrix(-1 0 0 1 49.751 109.45)" fill="#3F0255"/>
<rect width="19.9001" height="9.95" transform="matrix(-1 0 0 1 39.8008 89.5503)" fill="#3F0255"/>
<rect width="9.95006" height="9.95" transform="matrix(-1 0 0 1 29.8516 99.5)" fill="#3F0255"/>
<rect width="9.95006" height="59.7" transform="matrix(-1 0 0 1 49.751 39.8003)" fill="#3F0255"/>
<rect width="9.95006" height="9.95" transform="matrix(-1 0 0 1 49.751 99.5)" fill="#D9D9D9"/>
<rect width="9.95006" height="19.9" transform="matrix(-1 0 0 1 49.751 119.4)" fill="#D9D9D9"/>
<rect width="19.9001" height="9.95" transform="matrix(-1 0 0 1 59.7012 29.8501)" fill="#D9D9D9"/>
<rect width="19.9001" height="9.95" transform="matrix(-1 0 0 1 149.251 29.8501)" fill="#D9D9D9"/>
<rect x="99.502" y="79.6001" width="19.9001" height="9.95" fill="#D9D9D9"/>
<rect x="79.6016" y="119.4" width="29.8502" height="9.95" fill="#0A092B"/>
<rect x="89.5508" y="109.45" width="9.95006" height="9.95" fill="#0A092B"/>
<rect x="69.6514" y="89.5503" width="9.95006" height="9.95" fill="#0A092B"/>
<rect x="109.452" y="89.5503" width="9.95006" height="9.95" fill="#0A092B"/>
<rect x="109.452" y="69.6499" width="9.95006" height="9.95" fill="#0A092B"/>
<rect x="69.6514" y="69.6499" width="9.95006" height="9.95" fill="#0A092B"/>
<rect x="99.502" y="59.6997" width="19.9001" height="9.95" fill="#0A092B"/>
<rect x="69.6514" y="59.6997" width="19.9001" height="9.95" fill="#0A092B"/>
</svg>
